<svg width="16" height="16" viewBox="0 0 16 16" fill="none" xmlns="http://www.w3.org/2000/svg">
<path fill-rule="evenodd" clip-rule="evenodd" d="M3.33328 3.46621C3.03873 3.46621 2.79995 3.70499 2.79995 3.99954V13.3329C2.79995 13.6274 3.03873 13.8662 3.33328 13.8662H12.6666C12.9612 13.8662 13.2 13.6274 13.2 13.3329V3.99954C13.2 3.70499 12.9612 3.46621 12.6666 3.46621H3.33328ZM1.19995 3.99954C1.19995 2.82134 2.15508 1.86621 3.33328 1.86621H12.6666C13.8448 1.86621 14.8 2.82134 14.8 3.99954V13.3329C14.8 14.5111 13.8448 15.4662 12.6666 15.4662H3.33328C2.15508 15.4662 1.19995 14.5111 1.19995 13.3329V3.99954Z" fill="#14142B"/>
<path fill-rule="evenodd" clip-rule="evenodd" d="M10.6667 0.533203C11.1085 0.533203 11.4667 0.891375 11.4667 1.3332V3.99987C11.4667 4.4417 11.1085 4.79987 10.6667 4.79987C10.2249 4.79987 9.8667 4.4417 9.8667 3.99987V1.3332C9.8667 0.891375 10.2249 0.533203 10.6667 0.533203Z" fill="#14142B"/>
<path fill-rule="evenodd" clip-rule="evenodd" d="M5.33345 0.533203C5.77528 0.533203 6.13345 0.891375 6.13345 1.3332V3.99987C6.13345 4.4417 5.77528 4.79987 5.33345 4.79987C4.89162 4.79987 4.53345 4.4417 4.53345 3.99987V1.3332C4.53345 0.891375 4.89162 0.533203 5.33345 0.533203Z" fill="#14142B"/>
<path fill-rule="evenodd" clip-rule="evenodd" d="M1.19995 6.66621C1.19995 6.22438 1.55812 5.86621 1.99995 5.86621H14C14.4418 5.86621 14.8 6.22438 14.8 6.66621C14.8 7.10804 14.4418 7.46621 14 7.46621H1.99995C1.55812 7.46621 1.19995 7.10804 1.19995 6.66621Z" fill="#14142B"/>
</svg>
