<svg width="16" height="16" viewBox="0 0 16 16" fill="none" xmlns="http://www.w3.org/2000/svg">
<path d="M0 2C0 0.895431 0.895431 0 2 0H14C15.1046 0 16 0.895431 16 2V14C16 15.1046 15.1046 16 14 16H2C0.895431 16 0 15.1046 0 14V2Z" fill="#14142B"/>
<path fill-rule="evenodd" clip-rule="evenodd" d="M5.19995 8.0002C5.19995 7.55837 5.55812 7.2002 5.99995 7.2002H9.99995C10.4418 7.2002 10.8 7.55837 10.8 8.0002C10.8 8.44202 10.4418 8.8002 9.99995 8.8002H5.99995C5.55812 8.8002 5.19995 8.44202 5.19995 8.0002Z" fill="#FEFEFE"/>
</svg>
