<svg width="16" height="16" viewBox="0 0 16 16" fill="none" xmlns="http://www.w3.org/2000/svg">
<path d="M0 2C0 0.895431 0.895431 0 2 0H14C15.1046 0 16 0.895431 16 2V14C16 15.1046 15.1046 16 14 16H2C0.895431 16 0 15.1046 0 14V2Z" fill="#14142B"/>
<path fill-rule="evenodd" clip-rule="evenodd" d="M11.2318 5.434C11.5445 5.74613 11.545 6.25266 11.2328 6.56537L7.56615 10.2387C7.41617 10.389 7.21261 10.4734 7.00031 10.4735C6.78802 10.4736 6.58438 10.3893 6.43427 10.2392L4.43427 8.23921C4.12185 7.92679 4.12185 7.42026 4.43427 7.10784C4.74669 6.79542 5.25322 6.79542 5.56564 7.10784L6.99944 8.54164L10.1004 5.43502C10.4126 5.12232 10.9191 5.12186 11.2318 5.434Z" fill="#FEFEFE"/>
</svg>
