<svg width="16" height="16" viewBox="0 0 16 16" fill="none" xmlns="http://www.w3.org/2000/svg">
<path fill-rule="evenodd" clip-rule="evenodd" d="M8.00011 2.1332C4.76004 2.1332 2.13345 4.7598 2.13345 7.99987C2.13345 11.2399 4.76004 13.8665 8.00011 13.8665C11.2402 13.8665 13.8668 11.2399 13.8668 7.99987C13.8668 4.7598 11.2402 2.1332 8.00011 2.1332ZM0.533447 7.99987C0.533447 3.87614 3.87639 0.533203 8.00011 0.533203C12.1238 0.533203 15.4668 3.87614 15.4668 7.99987C15.4668 12.1236 12.1238 15.4665 8.00011 15.4665C3.87639 15.4665 0.533447 12.1236 0.533447 7.99987Z" fill="#14142B"/>
<path fill-rule="evenodd" clip-rule="evenodd" d="M11.5653 5.767C11.878 6.07914 11.8784 6.58567 11.5663 6.89837L7.89965 10.5717C7.74966 10.722 7.54611 10.8064 7.33381 10.8065C7.12151 10.8066 6.91788 10.7223 6.76776 10.5722L4.76776 8.57222C4.45534 8.2598 4.45534 7.75327 4.76776 7.44085C5.08018 7.12843 5.58671 7.12843 5.89913 7.44085L7.33293 8.87465L10.4339 5.76803C10.7461 5.45533 11.2526 5.45487 11.5653 5.767Z" fill="#14142B"/>
</svg>
