<svg width="16" height="16" viewBox="0 0 16 16" fill="none" xmlns="http://www.w3.org/2000/svg">
<path fill-rule="evenodd" clip-rule="evenodd" d="M2.66678 3.4667C2.52533 3.4667 2.38968 3.52289 2.28966 3.62291C2.18964 3.72293 2.13345 3.85858 2.13345 4.00003V13.3334C2.13345 13.4748 2.18964 13.6105 2.28966 13.7105C2.38968 13.8105 2.52533 13.8667 2.66678 13.8667H12.0001C12.1416 13.8667 12.2772 13.8105 12.3772 13.7105C12.4773 13.6105 12.5334 13.4748 12.5334 13.3334V9.77337C12.5334 9.33154 12.8916 8.97337 13.3334 8.97337C13.7753 8.97337 14.1334 9.33154 14.1334 9.77337V13.3334C14.1334 13.8992 13.9087 14.4418 13.5086 14.8419C13.1085 15.2419 12.5659 15.4667 12.0001 15.4667H2.66678C2.10099 15.4667 1.55836 15.2419 1.15829 14.8419C0.758209 14.4418 0.533447 13.8992 0.533447 13.3334V4.00003C0.533447 3.43424 0.758208 2.89162 1.15829 2.49154C1.55836 2.09146 2.10099 1.8667 2.66678 1.8667H6.22678C6.66861 1.8667 7.02678 2.22487 7.02678 2.6667C7.02678 3.10853 6.66861 3.4667 6.22678 3.4667H2.66678Z" fill="#111111"/>
<path fill-rule="evenodd" clip-rule="evenodd" d="M11.4344 0.767518C11.7468 0.455098 12.2534 0.455098 12.5658 0.767518L15.2325 3.43418C15.5449 3.7466 15.5449 4.25314 15.2325 4.56556L8.5658 11.2322C8.41577 11.3823 8.21229 11.4665 8.00011 11.4665H5.33345C4.89162 11.4665 4.53345 11.1084 4.53345 10.6665V7.99987C4.53345 7.7877 4.61773 7.58421 4.76776 7.43418L11.4344 0.767518ZM6.13345 8.33124V9.86654H7.66874L13.5354 3.99987L12.0001 2.46457L6.13345 8.33124Z" fill="#111111"/>
</svg>
