<svg width="16" height="16" viewBox="0 0 16 16" fill="none" xmlns="http://www.w3.org/2000/svg">
<path fill-rule="evenodd" clip-rule="evenodd" d="M10.52 1.725C10.0245 1.725 9.54935 1.92182 9.199 2.27217L3.07233 8.39884C2.4718 8.99937 2.13442 9.81387 2.13442 10.6631C2.13442 11.5124 2.4718 12.3269 3.07233 12.9275C3.67287 13.528 4.48737 13.8654 5.33665 13.8654C6.18593 13.8654 7.00043 13.528 7.60096 12.9275L13.7276 6.8008C14.0401 6.48838 14.5466 6.48838 14.859 6.8008C15.1714 7.11322 15.1714 7.61975 14.859 7.93217L8.73233 14.0588C7.83174 14.9594 6.61028 15.4654 5.33665 15.4654C4.06302 15.4654 2.84155 14.9594 1.94096 14.0588C1.04037 13.1582 0.534424 11.9368 0.534424 10.6631C0.534424 9.38952 1.04037 8.16806 1.94096 7.26746L8.06763 1.1408C8.71803 0.490393 9.60017 0.125 10.52 0.125C11.4398 0.125 12.3219 0.490393 12.9723 1.1408C13.6227 1.7912 13.9881 2.67334 13.9881 3.59315C13.9881 4.51296 13.6227 5.3951 12.9723 6.0455L6.839 12.1722C6.8389 12.1723 6.8391 12.1721 6.839 12.1722C6.43881 12.5722 5.89583 12.7972 5.32998 12.7972C4.76399 12.7972 4.22118 12.5724 3.82096 12.1722C3.42075 11.772 3.19591 11.2291 3.19591 10.6631C3.19591 10.0972 3.42075 9.55435 3.82096 9.15413L9.4813 3.50046C9.7939 3.18823 10.3004 3.18853 10.6127 3.50113C10.9249 3.81373 10.9246 4.32027 10.612 4.6325L4.95233 10.2855C4.85218 10.3857 4.79591 10.5215 4.79591 10.6631C4.79591 10.8048 4.85218 10.9406 4.95233 11.0408C5.05249 11.141 5.18834 11.1972 5.32998 11.1972C5.47163 11.1972 5.60747 11.141 5.70763 11.0408L11.841 4.91413C12.1911 4.56381 12.3881 4.08847 12.3881 3.59315C12.3881 3.09769 12.1913 2.62251 11.841 2.27217C11.4906 1.92182 11.0154 1.725 10.52 1.725Z" fill="#14142B"/>
</svg>
