<svg width="16" height="16" viewBox="0 0 16 16" fill="none" xmlns="http://www.w3.org/2000/svg">
<g clip-path="url(#clip0_25_2904)">
<path fill-rule="evenodd" clip-rule="evenodd" d="M0.666699 1.86621C1.10853 1.86621 1.4667 2.22438 1.4667 2.66621V5.86621H4.6667C5.10853 5.86621 5.4667 6.22438 5.4667 6.66621C5.4667 7.10804 5.10853 7.46621 4.6667 7.46621H0.666699C0.224871 7.46621 -0.133301 7.10804 -0.133301 6.66621V2.66621C-0.133301 2.22438 0.224871 1.86621 0.666699 1.86621Z" fill="#14142B"/>
<path fill-rule="evenodd" clip-rule="evenodd" d="M10.5334 9.3332C10.5334 8.89138 10.8916 8.5332 11.3334 8.5332H15.3334C15.7753 8.5332 16.1334 8.89138 16.1334 9.3332V13.3332C16.1334 13.775 15.7753 14.1332 15.3334 14.1332C14.8916 14.1332 14.5334 13.775 14.5334 13.3332V10.1332H11.3334C10.8916 10.1332 10.5334 9.77503 10.5334 9.3332Z" fill="#14142B"/>
<path fill-rule="evenodd" clip-rule="evenodd" d="M6.11429 1.46895C7.21773 1.14978 8.38404 1.11533 9.50439 1.36882C10.6247 1.62232 11.6626 2.15549 12.5212 2.91859C13.3798 3.68169 14.031 4.64984 14.4142 5.73272C14.5616 6.14924 14.3434 6.60638 13.9269 6.75377C13.5104 6.90116 13.0533 6.68299 12.9059 6.26647C12.6128 5.43839 12.1148 4.69804 11.4583 4.11449C10.8017 3.53094 10.008 3.12322 9.1513 2.92938C8.29455 2.73553 7.40267 2.76187 6.55886 3.00594C5.71506 3.25001 4.94683 3.70386 4.32586 4.32514C4.31995 4.33105 4.31395 4.33687 4.30786 4.3426L1.21452 7.24926C0.89254 7.55182 0.386253 7.53607 0.0836992 7.21408C-0.218854 6.8921 -0.203103 6.38581 0.11888 6.08326L3.20336 3.18491C4.01378 2.37716 5.01499 1.78692 6.11429 1.46895ZM15.9164 8.78511C16.2189 9.10709 16.2032 9.61338 15.8812 9.91593L12.7967 12.8143C11.9863 13.622 10.9851 14.2123 9.88578 14.5302C8.78234 14.8494 7.61603 14.8839 6.49568 14.6304C5.37532 14.3769 4.33744 13.8437 3.47888 13.0806C2.62032 12.3175 1.96906 11.3493 1.58586 10.2665C1.43847 9.84995 1.65664 9.39281 2.07316 9.24542C2.48968 9.09803 2.94682 9.3162 3.09421 9.73272C3.38724 10.5608 3.88526 11.3012 4.54181 11.8847C5.19836 12.4682 5.99203 12.876 6.84877 13.0698C7.70551 13.2637 8.5974 13.2373 9.44121 12.9932C10.285 12.7492 11.0532 12.2953 11.6742 11.6741C11.6801 11.6681 11.6861 11.6623 11.6922 11.6566L14.7855 8.74993C15.1075 8.44737 15.6138 8.46312 15.9164 8.78511Z" fill="#14142B"/>
</g>
<defs>
<clipPath id="clip0_25_2904">
<rect width="16" height="16" fill="white"/>
</clipPath>
</defs>
</svg>
