<svg width="16" height="16" viewBox="0 0 16 16" fill="none" xmlns="http://www.w3.org/2000/svg">
<path fill-rule="evenodd" clip-rule="evenodd" d="M7.33328 2.8002C4.82959 2.8002 2.79995 4.82984 2.79995 7.33353C2.79995 9.83722 4.82959 11.8669 7.33328 11.8669C9.83698 11.8669 11.8666 9.83722 11.8666 7.33353C11.8666 4.82984 9.83698 2.8002 7.33328 2.8002ZM1.19995 7.33353C1.19995 3.94618 3.94594 1.2002 7.33328 1.2002C10.7206 1.2002 13.4666 3.94618 13.4666 7.33353C13.4666 10.7209 10.7206 13.4669 7.33328 13.4669C3.94594 13.4669 1.19995 10.7209 1.19995 7.33353Z" fill="#14142B"/>
<path fill-rule="evenodd" clip-rule="evenodd" d="M10.5344 10.5341C10.8468 10.2217 11.3533 10.2217 11.6657 10.5341L14.5657 13.4341C14.8782 13.7465 14.8782 14.2531 14.5657 14.5655C14.2533 14.8779 13.7468 14.8779 13.4344 14.5655L10.5344 11.6655C10.2219 11.3531 10.2219 10.8465 10.5344 10.5341Z" fill="#14142B"/>
</svg>
