<svg width="16" height="16" viewBox="0 0 16 16" fill="none" xmlns="http://www.w3.org/2000/svg">
<path fill-rule="evenodd" clip-rule="evenodd" d="M8.00011 2.1332C4.76004 2.1332 2.13345 4.7598 2.13345 7.99987C2.13345 11.2399 4.76004 13.8665 8.00011 13.8665C11.2402 13.8665 13.8668 11.2399 13.8668 7.99987C13.8668 4.7598 11.2402 2.1332 8.00011 2.1332ZM0.533447 7.99987C0.533447 3.87614 3.87639 0.533203 8.00011 0.533203C12.1238 0.533203 15.4668 3.87614 15.4668 7.99987C15.4668 12.1236 12.1238 15.4665 8.00011 15.4665C3.87639 15.4665 0.533447 12.1236 0.533447 7.99987Z" fill="#14142B"/>
<path fill-rule="evenodd" clip-rule="evenodd" d="M5.97034 8.84939C5.70449 8.49927 5.20542 8.42912 4.85325 8.69325C4.49979 8.95835 4.42815 9.45979 4.69325 9.81325L5.33325 9.33325C4.69325 9.81325 4.69344 9.81351 4.69364 9.81377L4.69405 9.81431L4.69494 9.8155L4.69703 9.81825L4.70236 9.82521L4.71765 9.84479C4.7299 9.86026 4.74627 9.8805 4.76669 9.90484C4.80749 9.95345 4.86477 10.0187 4.93795 10.0951C5.08365 10.2471 5.29616 10.447 5.57105 10.6469C6.11773 11.0445 6.94616 11.4666 7.99992 11.4666C9.05368 11.4666 9.8821 11.0445 10.4288 10.6469C10.7037 10.447 10.9162 10.2471 11.0619 10.0951C11.1351 10.0187 11.1923 9.95345 11.2331 9.90484C11.2536 9.8805 11.2699 9.86026 11.2822 9.84479L11.2975 9.82521L11.3028 9.81825L11.3049 9.8155L11.3058 9.81431L11.3062 9.81377C11.3064 9.81351 11.3066 9.81325 10.6666 9.33325L11.3066 9.81325C11.5717 9.45979 11.5 8.95835 11.1466 8.69325C10.7944 8.42912 10.2953 8.49927 10.0295 8.8494C10.0295 8.8494 10.0295 8.84941 10.0295 8.84941C10.0291 8.84986 10.0285 8.85062 10.0277 8.85166C10.0245 8.85572 10.0178 8.86412 10.0076 8.87625C9.98718 8.90055 9.95331 8.93942 9.9067 8.98806C9.81282 9.08602 9.67116 9.21951 9.48771 9.35293C9.11773 9.62201 8.61283 9.86658 7.99992 9.86658C7.38701 9.86658 6.8821 9.62201 6.51212 9.35293C6.32867 9.21951 6.18701 9.08602 6.09313 8.98806C6.04652 8.93942 6.01266 8.90055 5.99225 8.87625C5.98208 8.86412 5.97534 8.85572 5.97212 8.85166C5.97129 8.85061 5.9707 8.84986 5.97035 8.8494C5.97034 8.8494 5.97034 8.84939 5.97034 8.84939ZM10.0277 8.85166L10.0273 8.85231L10.0269 8.85277" fill="#14142B"/>
<path fill-rule="evenodd" clip-rule="evenodd" d="M5.19995 6.0002C5.19995 5.55837 5.55812 5.2002 5.99995 5.2002H6.00662C6.44845 5.2002 6.80662 5.55837 6.80662 6.0002C6.80662 6.44202 6.44845 6.8002 6.00662 6.8002H5.99995C5.55812 6.8002 5.19995 6.44202 5.19995 6.0002Z" fill="#14142B"/>
<path fill-rule="evenodd" clip-rule="evenodd" d="M9.19995 6.0002C9.19995 5.55837 9.55812 5.2002 9.99995 5.2002H10.0066C10.4484 5.2002 10.8066 5.55837 10.8066 6.0002C10.8066 6.44202 10.4484 6.8002 10.0066 6.8002H9.99995C9.55812 6.8002 9.19995 6.44202 9.19995 6.0002Z" fill="#14142B"/>
</svg>
