<svg width="16" height="16" viewBox="0 0 16 16" fill="none" xmlns="http://www.w3.org/2000/svg">
<path fill-rule="evenodd" clip-rule="evenodd" d="M0.533447 1.3332C0.533447 0.891375 0.891619 0.533203 1.33345 0.533203H8.00011C8.21229 0.533203 8.41577 0.617489 8.5658 0.767518L14.2941 6.49587C14.6915 6.89558 14.9145 7.43627 14.9145 7.99987C14.9145 8.56347 14.6915 9.10416 14.2941 9.50387L14.2925 9.50556L9.51278 14.2852C9.31465 14.4836 9.07937 14.6409 8.82039 14.7483C8.5614 14.8557 8.2838 14.9109 8.00345 14.9109C7.7231 14.9109 7.44549 14.8557 7.18651 14.7483C6.92758 14.641 6.69234 14.4837 6.49424 14.2854C6.4942 14.2853 6.49428 14.2854 6.49424 14.2854L0.768091 8.56588C0.617861 8.41583 0.533447 8.2122 0.533447 7.99987V1.3332ZM2.13345 2.1332V7.66823L7.62547 13.1539C7.675 13.2034 7.73447 13.2434 7.79921 13.2703C7.86396 13.2971 7.93336 13.3109 8.00345 13.3109C8.07354 13.3109 8.14294 13.2971 8.20768 13.2703C8.27243 13.2434 8.33125 13.2041 8.38078 13.1545L13.1594 8.37587C13.1596 8.37564 13.1592 8.3761 13.1594 8.37587C13.2583 8.27601 13.3145 8.14045 13.3145 7.99987C13.3145 7.85927 13.259 7.72436 13.16 7.6245C13.1598 7.62429 13.1602 7.62471 13.16 7.6245L7.66874 2.1332H2.13345ZM3.86678 4.66654C3.86678 4.22471 4.22495 3.86654 4.66678 3.86654H4.67345C5.11528 3.86654 5.47345 4.22471 5.47345 4.66654C5.47345 5.10836 5.11528 5.46654 4.67345 5.46654H4.66678C4.22495 5.46654 3.86678 5.10836 3.86678 4.66654Z" fill="#14142B"/>
</svg>
