<svg width="16" height="16" viewBox="0 0 16 16" fill="none" xmlns="http://www.w3.org/2000/svg">
<path fill-rule="evenodd" clip-rule="evenodd" d="M1.19995 4.0002C1.19995 3.55837 1.55812 3.2002 1.99995 3.2002H14C14.4418 3.2002 14.8 3.55837 14.8 4.0002C14.8 4.44202 14.4418 4.8002 14 4.8002H1.99995C1.55812 4.8002 1.19995 4.44202 1.19995 4.0002Z" fill="#111111"/>
<path fill-rule="evenodd" clip-rule="evenodd" d="M6.66678 2.1332C6.52533 2.1332 6.38968 2.18939 6.28966 2.28941C6.18964 2.38943 6.13345 2.52509 6.13345 2.66654V3.19987H9.86678V2.66654C9.86678 2.52509 9.81059 2.38943 9.71057 2.28941C9.61055 2.18939 9.4749 2.1332 9.33345 2.1332H6.66678ZM11.4668 3.19987V2.66654C11.4668 2.10074 11.242 1.55812 10.8419 1.15804C10.4419 0.757964 9.89924 0.533203 9.33345 0.533203H6.66678C6.10099 0.533203 5.55836 0.757964 5.15829 1.15804C4.75821 1.55812 4.53345 2.10074 4.53345 2.66654V3.19987H3.33345C2.89162 3.19987 2.53345 3.55804 2.53345 3.99987V13.3332C2.53345 13.899 2.75821 14.4416 3.15829 14.8417C3.55836 15.2418 4.10099 15.4665 4.66678 15.4665H11.3334C11.8992 15.4665 12.4419 15.2418 12.8419 14.8417C13.242 14.4416 13.4668 13.899 13.4668 13.3332V3.99987C13.4668 3.55804 13.1086 3.19987 12.6668 3.19987H11.4668ZM4.13345 4.79987V13.3332C4.13345 13.4747 4.18964 13.6103 4.28966 13.7103C4.38968 13.8103 4.52533 13.8665 4.66678 13.8665H11.3334C11.4749 13.8665 11.6106 13.8103 11.7106 13.7103C11.8106 13.6103 11.8668 13.4747 11.8668 13.3332V4.79987H4.13345Z" fill="#111111"/>
<path fill-rule="evenodd" clip-rule="evenodd" d="M6.6667 6.5332C7.10853 6.5332 7.4667 6.89138 7.4667 7.3332V11.3332C7.4667 11.775 7.10853 12.1332 6.6667 12.1332C6.22487 12.1332 5.8667 11.775 5.8667 11.3332V7.3332C5.8667 6.89138 6.22487 6.5332 6.6667 6.5332Z" fill="#111111"/>
<path fill-rule="evenodd" clip-rule="evenodd" d="M9.33345 6.5332C9.77528 6.5332 10.1334 6.89138 10.1334 7.3332V11.3332C10.1334 11.775 9.77528 12.1332 9.33345 12.1332C8.89162 12.1332 8.53345 11.775 8.53345 11.3332V7.3332C8.53345 6.89138 8.89162 6.5332 9.33345 6.5332Z" fill="#111111"/>
</svg>
