<svg width="16" height="16" viewBox="0 0 16 16" fill="none" xmlns="http://www.w3.org/2000/svg">
<path fill-rule="evenodd" clip-rule="evenodd" d="M4.13446 4.13471C4.44688 3.82229 4.95341 3.82229 5.26583 4.13471L8.00004 6.86891L10.7342 4.13477C11.0466 3.82235 11.5531 3.82235 11.8655 4.13477C12.178 4.44719 12.178 4.95372 11.8655 5.26614L9.13141 8.00028L11.8655 10.7344C12.1779 11.0468 12.1779 11.5533 11.8655 11.8657C11.5531 12.1782 11.0465 12.1782 10.7341 11.8657L8.00004 9.13165L5.26588 11.8658C4.95346 12.1782 4.44693 12.1782 4.13451 11.8658C3.82209 11.5534 3.82209 11.0469 4.13451 10.7344L6.86866 8.00028L4.13446 5.26608C3.82204 4.95366 3.82204 4.44712 4.13446 4.13471Z" fill="#111111"/>
</svg>
