<svg width="343" height="72" viewBox="0 0 343 72" fill="none" xmlns="http://www.w3.org/2000/svg">
<path d="M3.472 56L11.312 16.8H15.4L7.56 56H3.472ZM25.8584 56.28C23.4691 56.28 21.2104 55.944 19.0824 55.272C16.9544 54.6 15.3118 53.7413 14.1544 52.696L16.0584 49.56C17.1784 50.568 18.6531 51.3707 20.4824 51.968C22.3118 52.528 24.2344 52.808 26.2504 52.808C29.0504 52.808 31.1971 52.3413 32.6904 51.408C34.2211 50.4747 34.9864 49.1867 34.9864 47.544C34.9864 46.424 34.5758 45.584 33.7544 45.024C32.9704 44.4267 31.9438 43.9787 30.6744 43.68C29.4051 43.344 28.0611 43.0267 26.6424 42.728C25.2238 42.4293 23.8798 42.056 22.6104 41.608C21.3411 41.1227 20.2958 40.3947 19.4744 39.424C18.6904 38.4533 18.2984 37.1467 18.2984 35.504C18.2984 33.6373 18.8211 32.0133 19.8664 30.632C20.9491 29.2507 22.4424 28.1867 24.3464 27.44C26.2504 26.6933 28.4904 26.32 31.0664 26.32C32.9331 26.32 34.7811 26.5627 36.6104 27.048C38.4398 27.5333 39.9144 28.2053 41.0344 29.064L39.3544 32.256C38.1971 31.36 36.8531 30.7253 35.3224 30.352C33.7918 29.9413 32.2611 29.736 30.7304 29.736C28.0051 29.736 25.8958 30.24 24.4024 31.248C22.9464 32.2187 22.2184 33.5067 22.2184 35.112C22.2184 36.232 22.6104 37.0907 23.3944 37.688C24.2158 38.2853 25.2611 38.752 26.5304 39.088C27.7998 39.424 29.1438 39.7413 30.5624 40.04C32.0184 40.3013 33.3624 40.6747 34.5944 41.16C35.8638 41.6453 36.8904 42.3547 37.6744 43.288C38.4958 44.184 38.9064 45.4533 38.9064 47.096C38.9064 49.0373 38.3651 50.6987 37.2824 52.08C36.1998 53.424 34.6691 54.4693 32.6904 55.216C30.7491 55.9253 28.4718 56.28 25.8584 56.28ZM50.9622 56.28C48.5729 56.28 46.3142 55.944 44.1862 55.272C42.0582 54.6 40.4155 53.7413 39.2582 52.696L41.1622 49.56C42.2822 50.568 43.7569 51.3707 45.5862 51.968C47.4155 52.528 49.3382 52.808 51.3542 52.808C54.1542 52.808 56.3009 52.3413 57.7942 51.408C59.3249 50.4747 60.0902 49.1867 60.0902 47.544C60.0902 46.424 59.6795 45.584 58.8582 45.024C58.0742 44.4267 57.0475 43.9787 55.7782 43.68C54.5089 43.344 53.1649 43.0267 51.7462 42.728C50.3275 42.4293 48.9835 42.056 47.7142 41.608C46.4449 41.1227 45.3995 40.3947 44.5782 39.424C43.7942 38.4533 43.4022 37.1467 43.4022 35.504C43.4022 33.6373 43.9249 32.0133 44.9702 30.632C46.0529 29.2507 47.5462 28.1867 49.4502 27.44C51.3542 26.6933 53.5942 26.32 56.1702 26.32C58.0369 26.32 59.8849 26.5627 61.7142 27.048C63.5435 27.5333 65.0182 28.2053 66.1382 29.064L64.4582 32.256C63.3009 31.36 61.9569 30.7253 60.4262 30.352C58.8955 29.9413 57.3649 29.736 55.8342 29.736C53.1089 29.736 50.9995 30.24 49.5062 31.248C48.0502 32.2187 47.3222 33.5067 47.3222 35.112C47.3222 36.232 47.7142 37.0907 48.4982 37.688C49.3195 38.2853 50.3649 38.752 51.6342 39.088C52.9035 39.424 54.2475 39.7413 55.6662 40.04C57.1222 40.3013 58.4662 40.6747 59.6982 41.16C60.9675 41.6453 61.9942 42.3547 62.7782 43.288C63.5995 44.184 64.0102 45.4533 64.0102 47.096C64.0102 49.0373 63.4689 50.6987 62.3862 52.08C61.3035 53.424 59.7729 54.4693 57.7942 55.216C55.8529 55.9253 53.5755 56.28 50.9622 56.28ZM79.8179 56.28C77.2419 56.28 75.0953 55.7573 73.3779 54.712C71.6979 53.6667 70.5406 52.1733 69.9059 50.232C69.2713 48.2907 69.1966 45.9947 69.6819 43.344L73.0419 26.6H77.0179L73.6579 43.344C73.0979 46.256 73.4153 48.552 74.6099 50.232C75.8046 51.8747 77.8953 52.696 80.8819 52.696C83.9806 52.696 86.5566 51.8373 88.6099 50.12C90.7006 48.4027 92.1006 45.8267 92.8099 42.392L95.9459 26.6H99.9219L94.0419 56H90.2339L91.9139 47.544L92.7539 48.944C91.3726 51.4827 89.5433 53.3493 87.2659 54.544C85.0259 55.7013 82.5433 56.28 79.8179 56.28ZM116.323 56.28C113.523 56.28 111.078 55.776 108.987 54.768C106.934 53.7227 105.347 52.2667 104.227 50.4C103.144 48.5333 102.603 46.312 102.603 43.736C102.603 40.376 103.312 37.3893 104.731 34.776C106.15 32.1627 108.091 30.1093 110.555 28.616C113.019 27.0853 115.8 26.32 118.899 26.32C121.512 26.32 123.771 26.824 125.675 27.832C127.579 28.8027 129.054 30.2213 130.099 32.088C131.182 33.9547 131.723 36.1947 131.723 38.808C131.723 39.4053 131.686 40.0213 131.611 40.656C131.536 41.2533 131.443 41.832 131.331 42.392H105.515L106.019 39.424H129.483L127.859 40.544C128.232 38.192 128.064 36.2133 127.355 34.608C126.646 33.0027 125.544 31.7893 124.051 30.968C122.595 30.1093 120.84 29.68 118.787 29.68C116.398 29.68 114.27 30.2773 112.403 31.472C110.536 32.6293 109.08 34.2533 108.035 36.344C106.99 38.3973 106.467 40.8053 106.467 43.568C106.467 46.5173 107.307 48.7947 108.987 50.4C110.704 51.968 113.262 52.752 116.659 52.752C118.638 52.752 120.467 52.4347 122.147 51.8C123.827 51.128 125.208 50.2133 126.291 49.056L128.083 51.912C126.702 53.2933 124.966 54.376 122.875 55.16C120.822 55.9067 118.638 56.28 116.323 56.28ZM155.312 56L162.424 20.384H148.592L149.32 16.8H181.016L180.288 20.384H166.512L159.4 56H155.312ZM176.007 56L181.831 26.6H185.639L183.959 35.28L183.511 33.768C184.817 31.192 186.535 29.3067 188.663 28.112C190.828 26.9173 193.516 26.32 196.727 26.32L195.999 30.184C195.812 30.184 195.625 30.184 195.439 30.184C195.289 30.1467 195.103 30.128 194.879 30.128C191.743 30.128 189.148 31.0427 187.095 32.872C185.079 34.664 183.697 37.3893 182.951 41.048L179.983 56H176.007ZM208.076 56.28C205.575 56.28 203.354 55.776 201.412 54.768C199.471 53.76 197.959 52.3227 196.876 50.456C195.794 48.5893 195.252 46.368 195.252 43.792C195.252 41.2907 195.663 38.976 196.484 36.848C197.306 34.72 198.463 32.872 199.956 31.304C201.45 29.6987 203.204 28.4667 205.22 27.608C207.274 26.7493 209.495 26.32 211.884 26.32C214.46 26.32 216.644 26.7867 218.436 27.72C220.228 28.616 221.61 29.9413 222.58 31.696C223.551 33.4133 224.036 35.504 224.036 37.968C224.036 41.5147 223.383 44.6693 222.076 47.432C220.77 50.1947 218.922 52.36 216.532 53.928C214.143 55.496 211.324 56.28 208.076 56.28ZM208.916 52.752C211.38 52.752 213.564 52.1733 215.468 51.016C217.41 49.8213 218.922 48.1787 220.004 46.088C221.124 43.9973 221.684 41.6267 221.684 38.976C221.684 36.064 220.826 33.8053 219.108 32.2C217.428 30.5947 215.058 29.792 211.996 29.792C209.57 29.792 207.386 30.3893 205.444 31.584C203.503 32.7787 201.972 34.4213 200.852 36.512C199.77 38.5653 199.228 40.936 199.228 43.624C199.228 46.4987 200.068 48.7387 201.748 50.344C203.466 51.9493 205.855 52.752 208.916 52.752ZM218.604 56L220.284 47.544L221.964 41.608L222.524 35.448L224.316 26.6H228.292L222.412 56H218.604ZM244.573 56.28C241.773 56.28 239.347 55.776 237.293 54.768C235.277 53.7227 233.709 52.2667 232.589 50.4C231.507 48.5333 230.965 46.3307 230.965 43.792C230.965 40.432 231.693 37.4453 233.149 34.832C234.605 32.1813 236.621 30.1093 239.197 28.616C241.811 27.0853 244.779 26.32 248.101 26.32C250.827 26.32 253.16 26.824 255.101 27.832C257.08 28.8027 258.611 30.2587 259.693 32.2L256.333 34.16C255.512 32.6667 254.373 31.5653 252.917 30.856C251.499 30.1467 249.781 29.792 247.765 29.792C245.301 29.792 243.099 30.3893 241.157 31.584C239.216 32.7787 237.685 34.4213 236.565 36.512C235.483 38.5653 234.941 40.936 234.941 43.624C234.941 46.4987 235.781 48.7387 237.461 50.344C239.179 51.9493 241.605 52.752 244.741 52.752C246.645 52.752 248.4 52.3973 250.005 51.688C251.648 50.9413 252.992 49.8773 254.037 48.496L256.893 50.68C255.624 52.4347 253.888 53.816 251.685 54.824C249.483 55.7947 247.112 56.28 244.573 56.28ZM264.883 48.16L265.667 43.288L287.059 26.6H292.715L276.643 39.088L274.459 40.768L264.883 48.16ZM260.123 56L268.411 14.448H272.387L264.099 56H260.123ZM283.083 56L273.787 40.712L276.531 37.744L287.731 56H283.083ZM303.205 56.28C300.405 56.28 297.96 55.776 295.869 54.768C293.816 53.7227 292.229 52.2667 291.109 50.4C290.027 48.5333 289.485 46.312 289.485 43.736C289.485 40.376 290.195 37.3893 291.613 34.776C293.032 32.1627 294.973 30.1093 297.437 28.616C299.901 27.0853 302.683 26.32 305.781 26.32C308.395 26.32 310.653 26.824 312.557 27.832C314.461 28.8027 315.936 30.2213 316.981 32.088C318.064 33.9547 318.605 36.1947 318.605 38.808C318.605 39.4053 318.568 40.0213 318.493 40.656C318.419 41.2533 318.325 41.832 318.213 42.392H292.397L292.901 39.424H316.365L314.741 40.544C315.115 38.192 314.947 36.2133 314.237 34.608C313.528 33.0027 312.427 31.7893 310.933 30.968C309.477 30.1093 307.723 29.68 305.669 29.68C303.28 29.68 301.152 30.2773 299.285 31.472C297.419 32.6293 295.963 34.2533 294.917 36.344C293.872 38.3973 293.349 40.8053 293.349 43.568C293.349 46.5173 294.189 48.7947 295.869 50.4C297.587 51.968 300.144 52.752 303.541 52.752C305.52 52.752 307.349 52.4347 309.029 51.8C310.709 51.128 312.091 50.2133 313.173 49.056L314.965 51.912C313.584 53.2933 311.848 54.376 309.757 55.16C307.704 55.9067 305.52 56.28 303.205 56.28ZM321.322 56L327.146 26.6H330.954L329.274 35.28L328.826 33.768C330.133 31.192 331.85 29.3067 333.978 28.112C336.144 26.9173 338.832 26.32 342.042 26.32L341.314 30.184C341.128 30.184 340.941 30.184 340.754 30.184C340.605 30.1467 340.418 30.128 340.194 30.128C337.058 30.128 334.464 31.0427 332.41 32.872C330.394 34.664 329.013 37.3893 328.266 41.048L325.298 56H321.322Z" fill="#14142B"/>
</svg>
